<svg width="170" height="40" viewBox="0 0 170 40" fill="none" xmlns="http://www.w3.org/2000/svg">
<path d="M79.408 13.8V25H77.2V15.912H73.248V25H71.04V13.8H79.408ZM91.7171 23.544C90.5865 24.664 89.2105 25.224 87.5891 25.224C85.9678 25.224 84.5918 24.664 83.4611 23.544C82.3411 22.4133 81.7811 21.032 81.7811 19.4C81.7811 17.768 82.3411 16.392 83.4611 15.272C84.5918 14.1413 85.9678 13.576 87.5891 13.576C89.2105 13.576 90.5865 14.1413 91.7171 15.272C92.8478 16.392 93.4131 17.768 93.4131 19.4C93.4131 21.032 92.8478 22.4133 91.7171 23.544ZM85.0131 22.04C85.7065 22.7227 86.5651 23.064 87.5891 23.064C88.6131 23.064 89.4718 22.7227 90.1651 22.04C90.8585 21.3467 91.2051 20.4667 91.2051 19.4C91.2051 18.3333 90.8585 17.4533 90.1651 16.76C89.4718 16.0667 88.6131 15.72 87.5891 15.72C86.5651 15.72 85.7065 16.0667 85.0131 16.76C84.3198 17.4533 83.9731 18.3333 83.9731 19.4C83.9731 20.4667 84.3198 21.3467 85.0131 22.04ZM103.873 22.888H105.073V27.144H102.865V25H96.673V27.144H94.465V22.888H95.553C96.1717 22.024 96.481 20.76 96.481 19.096V13.8H103.873V22.888ZM97.921 22.888H101.665V15.864H98.689V19.128C98.689 20.7493 98.433 22.0027 97.921 22.888ZM111.522 13.8C112.6 13.8 113.506 14.1627 114.242 14.888C114.978 15.6133 115.346 16.504 115.346 17.56C115.346 18.616 114.978 19.5067 114.242 20.232C113.506 20.9573 112.6 21.32 111.522 21.32H109.554V25H107.346V13.8H111.522ZM111.522 19.256C111.992 19.256 112.381 19.096 112.69 18.776C113 18.4453 113.154 18.04 113.154 17.56C113.154 17.0693 113 16.664 112.69 16.344C112.381 16.024 111.992 15.864 111.522 15.864H109.554V19.256H111.522ZM126.93 23.544C125.799 24.664 124.423 25.224 122.802 25.224C121.18 25.224 119.804 24.664 118.674 23.544C117.554 22.4133 116.994 21.032 116.994 19.4C116.994 17.768 117.554 16.392 118.674 15.272C119.804 14.1413 121.18 13.576 122.802 13.576C124.423 13.576 125.799 14.1413 126.93 15.272C128.06 16.392 128.626 17.768 128.626 19.4C128.626 21.032 128.06 22.4133 126.93 23.544ZM120.226 22.04C120.919 22.7227 121.778 23.064 122.802 23.064C123.826 23.064 124.684 22.7227 125.378 22.04C126.071 21.3467 126.418 20.4667 126.418 19.4C126.418 18.3333 126.071 17.4533 125.378 16.76C124.684 16.0667 123.826 15.72 122.802 15.72C121.778 15.72 120.919 16.0667 120.226 16.76C119.532 17.4533 119.186 18.3333 119.186 19.4C119.186 20.4667 119.532 21.3467 120.226 22.04ZM135.266 18.04C136.354 18.04 137.244 18.3653 137.938 19.016C138.631 19.656 138.977 20.488 138.977 21.512C138.977 22.5467 138.631 23.3893 137.938 24.04C137.244 24.68 136.354 25 135.266 25H130.978V13.8H138.017V15.912H133.186V18.04H135.266ZM135.266 22.936C135.703 22.936 136.066 22.8133 136.354 22.568C136.642 22.312 136.786 21.96 136.786 21.512C136.786 21.064 136.642 20.7173 136.354 20.472C136.066 20.2267 135.703 20.104 135.266 20.104H133.186V22.936H135.266ZM147.505 13.8H149.697V25H147.505V20.36H143.345V25H141.137V13.8H143.345V18.248H147.505V13.8ZM154.785 22.888H159.505V25H152.577V13.8H159.425V15.912H154.785V18.296H159.025V20.376H154.785V22.888ZM164.07 22.888H168.79V25H161.862V13.8H168.71V15.912H164.07V18.296H168.31V20.376H164.07V22.888Z" fill="white"/>
<path d="M35.3536 20.3536C35.5488 20.1583 35.5488 19.8417 35.3536 19.6464L32.1716 16.4645C31.9763 16.2692 31.6597 16.2692 31.4645 16.4645C31.2692 16.6597 31.2692 16.9763 31.4645 17.1716L34.2929 20L31.4645 22.8284C31.2692 23.0237 31.2692 23.3403 31.4645 23.5355C31.6597 23.7308 31.9763 23.7308 32.1716 23.5355L35.3536 20.3536ZM15 20.5L35 20.5V19.5L15 19.5V20.5Z" fill="white"/>
<rect x="0.5" y="0.5" width="49" height="39" stroke="white"/>
</svg>
